<?xml version="1.0" encoding="utf-8"?>
<!-- Svg Vector Icons : http://www.onlinewebfonts.com/icon -->
<!DOCTYPE svg PUBLIC "-//W3C//DTD SVG 1.1//EN" "http://www.w3.org/Graphics/SVG/1.1/DTD/svg11.dtd">
<svg version="1.1" xmlns="http://www.w3.org/2000/svg" xmlns:xlink="http://www.w3.org/1999/xlink" x="0px" y="0px" viewBox="0 0 1000 1000" enable-background="new 0 0 1000 1000" xml:space="preserve">
<metadata> Svg Vector Icons : http://www.onlinewebfonts.com/icon </metadata>
<g><g transform="translate(0.000000,447.000000) scale(0.100000,-0.100000)"><path d="M3391.9,3742.8C2278.1,3616,1279.5,2999.6,678.4,2064.4c-228.5-353.3-434-868-514.7-1286.6C52.4,194,90.8-735.5,248.3-1215.6c119.1-359.1,290-610.7,712.5-1048.5l270.8-280.4l26.9-144c49.9-293.8,172.8-597.2,357.2-877.6c530-818.1,1376.9-1288.6,2244.9-1246.3c725.9,34.6,1271.3,268.8,1747.5,750.9c201.6,203.5,218.9,215.1,364.9,266.9c760.4,268.8,1378.8,896.8,1611.2,1636.2c92.2,299.6,115.2,482,115.2,919.9c-1.9,391.7-15.4,514.7-94.1,904.5l-13.4,57.6l170.9,51.8c336.1,99.9,952.5,213.2,1695.7,311.1c217,28.8,405.2,55.7,416.7,59.5c17.3,3.8,25,51.8,25,149.8v144l-99.9,19.2c-55.7,11.5-574.2,115.2-1152.2,228.5c-578,115.2-1056.2,213.2-1062,217c-3.8,5.8-34.6,134.4-67.2,288.1c-96,457-199.7,772-363,1086.9C6725.7,3114.8,5940.2,3568,4676.6,3715.9C4359.8,3752.4,3612.8,3767.8,3391.9,3742.8z M4302.2,3379.8c1263.6-88.3,2014.5-416.7,2458-1077.3c222.8-330.3,355.3-743.2,449.4-1388.4c21.1-147.9,46.1-274.6,53.8-282.3c44.2-42.2,585.7-140.2,1446-259.2l528.1-74.9l-153.6-13.4C8246.6,205.5,7852.9,136.4,7413.1-9.6c-291.9-97.9-854.6-313-1277-489.7c-349.5-146-395.6-169-620.3-303.4L5404.5-868l74.9-51.9c242-176.7,387.9-485.8,443.6-942.9c126.7-1019.7-320.7-1935.7-1148.4-2350.5c-334.1-169-626-232.4-1038.9-230.4c-234.3,1.9-309.2,9.6-464.7,51.9c-843,222.8-1553.6,1006.3-1666.9,1837.8c-11.5,88.3-15.4,165.1-5.8,174.7c9.6,9.6,211.2,134.4,447.4,278.4c238.1,142.1,439.8,268.8,451.3,278.5c28.8,28.8-69.1,19.2-224.7-21.1c-126.7-32.6-265-82.6-775.8-278.4l-119.1-44.2l-217,240c-345.7,382.1-478.2,581.9-570.3,869.9C453.8-631.8,423,215.1,526.7,725.9C738,1749.5,1417.8,2623.2,2353,3070.7C2932.9,3347.2,3491.8,3435.5,4302.2,3379.8z M7276.8-570.3c180.5-1002.4-1.9-1761-564.6-2329.4c-149.8-153.6-366.8-315-526.2-397.5c-82.6-42.3-92.2-44.2-78.7-11.5c53.8,124.8,128.7,428.2,151.7,608.7c88.3,676,36.5,1225.2-151.7,1615c-36.5,76.8-67.2,145.9-67.2,153.6c0,32.6,1106.1,524.2,1182.9,528.1C7236.5-403.3,7259.5-474.3,7276.8-570.3z"/><path d="M3812.5-1787.9c-428.2-55.7-733.6-405.2-733.6-843c0-343.8,180.5-624.1,499.3-773.9c121-57.6,140.2-61.5,349.5-61.5c207.4,0,228.5,3.8,349.5,61.5c547.3,259.3,668.3,983.2,230.4,1392.3C4317.5-1833.9,4069.8-1755.2,3812.5-1787.9z M4108.2-2177.7c247.7-103.7,368.7-410.9,253.5-654.8c-82.6-178.6-240-278.4-441.7-278.4c-142.1,0-243.9,44.2-341.8,145.9c-92.2,97.9-134.4,201.6-134.4,336.1c0,190.1,111.4,364.9,282.3,441.7C3818.2-2145,4016-2139.3,4108.2-2177.7z"/></g></g>
</svg>